<svg xmlns="http://www.w3.org/2000/svg" width="5.3em" height="1em" fill="none" viewBox="0 0 106 20"><path fill="currentColor" d="M25.462 4.15V.18l-4.773 2.508v-.15C20.69.954 19.554 0 17.912 0H2.778C1.045 0 0 .955 0 2.537v4.009L6.688 10 0 13.49v4C0 19.047 1.052 20 2.778 20h15.13c1.642 0 2.778-.955 2.778-2.507v-.208l4.775 2.536v-4.03l-11.103-5.79zm-14.955 7.822 8.208 4.297H2.271zm8.149-8.24-8.15 4.27-8.236-4.27zM39.79 15.98c-4.788 0-8.131-3.041-8.131-7.394s3.344-7.395 8.13-7.395c1.21 0 2.627.137 4.807 1.127v3.097c-1.575-.877-3.13-1.322-4.625-1.322-3.004 0-5.095 1.848-5.095 4.493s2.103 4.492 5.095 4.492c1.456 0 3.053-.452 4.625-1.313v3.088c-2.18.989-3.597 1.127-4.806 1.127m11.213 0c-2.83 0-4.806-2.15-4.806-5.228 0-3.042 2.06-5.25 4.903-5.25 1.569 0 2.662.48 3.538 1.555l.071.087v-1.13h2.768v9.741H54.71V14.37l-.072.106c-.712 1.025-1.866 1.503-3.633 1.503m.958-8.156c-1.653 0-2.862 1.23-2.862 2.928s1.202 2.905 2.862 2.905c1.659 0 2.882-1.223 2.882-2.905s-1.212-2.928-2.883-2.928M59.577 20V6.012h2.791v1.216l.072-.1c.536-.751 1.803-1.627 3.615-1.627 2.783 0 4.807 2.208 4.807 5.25 0 3.077-1.984 5.227-4.826 5.227-1.694 0-2.904-.49-3.593-1.453l-.072-.1v5.573h-2.794zm5.519-12.177c-1.653 0-2.862 1.23-2.862 2.928s1.202 2.905 2.862 2.905c1.659 0 2.837-1.223 2.837-2.905s-1.192-2.928-2.837-2.928m15.602 8.156c-4.79 0-8.133-3.041-8.133-7.394s3.343-7.395 8.133-7.395c1.201 0 2.625.137 4.806 1.127v3.097c-1.574-.877-3.13-1.322-4.623-1.322-3.004 0-5.095 1.848-5.095 4.493s2.102 4.492 5.095 4.492c1.453 0 3.052-.452 4.623-1.313v3.088c-2.18.989-3.6 1.127-4.806 1.127m11.63 0c-3.121 0-5.137-1.473-5.137-3.755v-6.5h2.768v5.698c0 1.4.886 2.236 2.368 2.236 1.456 0 2.326-.835 2.326-2.235V5.724h2.769v6.5c0 2.283-2 3.754-5.094 3.754m11.205 0c-3.067 0-4.155-1.902-4.155-3.53V5.202l2.769-1.457v1.978h3.82V7.99h-3.82v3.905c0 .525.2 1.744 2.055 1.744a5.1 5.1 0 0 0 1.765-.374V15.6c-.968.35-2.106.378-2.434.378"></path></svg>